<svg width="248" height="142" viewBox="0 0 248 142" fill="none" xmlns="http://www.w3.org/2000/svg">
<path fill-rule="evenodd" clip-rule="evenodd" d="M0 24.1718V56.5454C0 63.2534 5.83309 69.9615 17.7909 68.5032V60.9202C17.3901 60.9202 16.9586 60.9317 16.5075 60.9437C13.0199 61.0364 8.35776 61.1605 7.58301 56.2537V39.9211H17.7909V33.213H7.58301V24.1718H0ZM54.4356 39.2091C56.9586 42.4016 58.331 46.3517 58.331 50.4207V68.4946H51.0155V64.9482C47.7465 67.3711 43.7557 68.6206 39.6887 68.4946C35.6216 68.3687 31.7158 66.8746 28.6029 64.2541C25.4901 61.6336 23.352 58.0397 22.5345 54.0537C21.717 50.0676 22.2678 45.9223 24.0979 42.288C25.928 38.6537 28.9303 35.7429 32.6195 34.0262C36.3087 32.3095 40.4691 31.8873 44.4279 32.8278C48.3868 33.7683 51.9127 36.0166 54.4356 39.2091ZM51.3312 50.7123C51.3312 56.9943 46.2386 62.0868 39.9567 62.0868C33.6747 62.0868 28.5821 56.9943 28.5821 50.7123C28.5821 44.4304 33.6747 39.3378 39.9567 39.3378C46.2386 39.3378 51.3312 44.4304 51.3312 50.7123Z" fill="url(#paint0_linear_2094_5260)"/>
<path fill-rule="evenodd" clip-rule="evenodd" d="M64.5493 78.2527V109.626C64.5493 116.167 70.0949 122.708 81.4565 121.678C81.9599 121.633 82.3402 121.204 82.3402 120.699V115.001C82.3402 114.449 81.893 114.003 81.3409 114.017L81.0568 114.025C78.1091 114.103 74.3224 114.204 72.7528 111.271C72.1311 110.109 72.1317 108.736 72.1323 107.415L72.1323 107.294V93.002V90.6688V88.3355V86.294V78.2527C72.1323 77.7004 71.6846 77.2527 71.1323 77.2527H65.5493C64.997 77.2527 64.5493 77.7004 64.5493 78.2527ZM11.8935 87.0883C15.1561 85.7905 18.7427 85.2534 22.2937 85.5081C23.734 85.6115 24.3934 87.2467 23.5606 88.4263L20.7218 92.4472C20.347 92.978 19.7347 93.287 19.0857 93.319C11.5353 93.6918 7.63188 98.0979 7.63188 101.168V119.876C7.63188 120.98 6.73672 121.876 5.63215 121.878L5.24808 121.879C4.27764 121.88 3.15198 121.882 2.00003 121.883C0.895464 121.884 0 120.989 0 119.884V106.721V87.419C0 86.3145 0.895431 85.419 2 85.419H5.29136C6.39592 85.419 7.29136 86.3145 7.29136 87.419V87.646C7.29136 88.4619 8.22581 88.9471 8.92949 88.5341C9.86405 87.9857 10.8548 87.5015 11.8935 87.0883ZM40.6338 121.786C50.6205 121.786 58.7163 113.69 58.7163 103.703C58.7163 93.7164 50.6205 85.6206 40.6338 85.6206C30.647 85.6206 22.5512 93.7164 22.5512 103.703C22.5512 113.69 30.647 121.786 40.6338 121.786ZM40.3419 114.786C46.6239 114.786 51.7165 109.694 51.7165 103.412C51.7165 97.1296 46.6239 92.037 40.3419 92.037C34.06 92.037 28.9674 97.1296 28.9674 103.412C28.9674 109.694 34.06 114.786 40.3419 114.786ZM122.005 103.703C122.005 99.634 120.633 95.6839 118.11 92.4914C115.587 89.2989 112.061 87.0507 108.102 86.1102C104.143 85.1697 99.983 85.5919 96.2938 87.3086C92.6046 89.0253 89.6023 91.9361 87.7722 95.5704C85.9421 99.2046 85.3913 103.35 86.2088 107.336C87.0263 111.322 89.1644 114.916 92.2772 117.536C95.3901 120.157 99.2958 121.651 103.363 121.777C106.64 121.878 109.868 121.087 112.709 119.508C113.561 119.034 114.69 119.614 114.69 120.589C114.69 121.245 115.222 121.777 115.878 121.777H120.005C121.11 121.777 122.005 120.882 122.005 119.777V103.703ZM103.631 115.369C109.913 115.369 115.006 110.277 115.006 103.995C115.006 97.7127 109.913 92.6202 103.631 92.6202C97.3491 92.6202 92.2565 97.7127 92.2565 103.995C92.2565 110.277 97.3491 115.369 103.631 115.369ZM164.493 103.502C164.493 99.4326 163.121 95.4825 160.598 92.29C158.075 89.0975 154.549 86.8492 150.59 85.9087C146.631 84.9682 142.471 85.3904 138.782 87.1071C138.299 87.3317 137.828 87.5768 137.37 87.8412C136.661 88.2507 135.718 87.7649 135.718 86.9459C135.718 86.1026 135.035 85.419 134.192 85.419H130.328C129.223 85.419 128.328 86.3145 128.328 87.419L128.328 107.293V119.584C128.328 120.689 129.223 121.584 130.328 121.583C131.252 121.582 132.149 121.58 132.931 121.579L133.037 121.578C134.141 121.576 135.036 120.68 135.036 119.576V102.819C135.036 100.194 138.15 93.0298 146.025 93.0298C154.775 93.0298 157.178 101.361 157.178 102.819V119.576C157.178 120.68 158.073 121.576 159.178 121.576H162.493C163.598 121.576 164.493 120.68 164.493 119.576V103.502ZM206.002 103.674L206.002 103.703V119.777C206.002 120.882 205.106 121.777 204.002 121.777H199.874C199.218 121.777 198.686 121.245 198.686 120.589C198.686 119.614 197.558 119.034 196.705 119.508C193.865 121.087 190.637 121.879 187.359 121.777C183.292 121.651 179.387 120.157 176.274 117.537C173.161 114.916 171.023 111.322 170.205 107.336C169.388 103.35 169.939 99.2048 171.769 95.5705C173.599 91.9362 176.601 89.0254 180.29 87.3087C183.979 85.592 188.14 85.1698 192.099 86.1103C194.387 86.6539 196.53 87.6342 198.419 88.9812V78.4543C198.419 77.902 198.866 77.4543 199.419 77.4543H205.002C205.554 77.4543 206.002 77.902 206.002 78.4543V86.4956V88.5372V90.8704V93.2036V103.674ZM198.419 100.389C196.911 95.8743 192.649 92.6203 187.628 92.6203C181.346 92.6203 176.253 97.7129 176.253 103.995C176.253 110.277 181.346 115.369 187.628 115.369C192.649 115.369 196.911 112.115 198.419 107.601V100.389ZM248 103.703C248 113.69 239.904 121.786 229.917 121.786C219.931 121.786 211.835 113.69 211.835 103.703C211.835 93.7164 219.931 85.6206 229.917 85.6206C239.904 85.6206 248 93.7164 248 103.703ZM241 103.412C241 109.694 235.908 114.786 229.626 114.786C223.344 114.786 218.251 109.694 218.251 103.412C218.251 97.1296 223.344 92.037 229.626 92.037C235.908 92.037 241 97.1296 241 103.412Z" fill="url(#paint1_linear_2094_5260)"/>
<path d="M130.927 135.258C131.53 135.296 132.065 135.46 132.533 135.75C133.006 136.04 133.373 136.43 133.633 136.922C133.892 137.408 134.022 137.953 134.022 138.558C134.022 139.201 133.876 139.775 133.584 140.279C133.298 140.783 132.899 141.177 132.387 141.461C131.874 141.745 131.29 141.886 130.635 141.886H130.148C130.096 141.886 129.983 141.886 129.807 141.886C129.632 141.886 129.321 141.867 128.873 141.83L128.328 141.782V135.249L130.927 135.258ZM130.323 141.177C131.258 141.177 131.975 140.953 132.474 140.506C132.974 140.058 133.224 139.418 133.224 138.586C133.224 137.805 133.01 137.184 132.581 136.724C132.16 136.263 131.572 136.014 130.82 135.977H129.126V141.13C129.567 141.161 129.966 141.177 130.323 141.177Z" fill="#FCFCFC"/>
<path d="M139.807 142C139.164 141.994 138.587 141.849 138.074 141.565C137.568 141.275 137.169 140.884 136.877 140.392C136.592 139.894 136.449 139.333 136.449 138.709V138.435C136.449 137.836 136.595 137.288 136.887 136.79C137.185 136.285 137.588 135.888 138.094 135.598C138.606 135.302 139.164 135.154 139.768 135.154C140.378 135.154 140.936 135.302 141.442 135.598C141.948 135.888 142.35 136.285 142.649 136.79C142.947 137.288 143.097 137.836 143.097 138.435V138.709C143.097 139.333 142.951 139.898 142.659 140.402C142.373 140.906 141.981 141.3 141.481 141.584C140.981 141.867 140.423 142.006 139.807 142ZM139.778 141.281C140.251 141.281 140.68 141.171 141.062 140.95C141.445 140.723 141.747 140.414 141.968 140.024C142.188 139.633 142.299 139.195 142.299 138.709V138.435C142.299 137.975 142.185 137.549 141.958 137.159C141.731 136.761 141.423 136.449 141.033 136.222C140.65 135.989 140.225 135.873 139.758 135.873C139.297 135.873 138.876 135.989 138.493 136.222C138.11 136.449 137.805 136.761 137.578 137.159C137.357 137.549 137.247 137.975 137.247 138.435V138.709C137.247 139.195 137.357 139.633 137.578 140.024C137.799 140.414 138.1 140.723 138.483 140.95C138.872 141.171 139.304 141.281 139.778 141.281Z" fill="#FCFCFC"/>
<path d="M150.133 135.305H150.932V141.801H150.133V135.305Z" fill="#FCFCFC"/>
<path d="M154.186 135.211H154.527L158.702 140.279L158.839 140.515L158.829 140.251L158.819 135.296H159.608V141.801H159.199L158.634 141.262L155.315 137.385L154.936 136.894L154.984 137.518V141.801H154.186V135.211Z" fill="#FCFCFC"/>
<path d="M162.858 135.305H163.656V141.801H162.858V135.305ZM162.907 134.511L163.87 132.667L164.581 133.045L163.423 134.814L162.907 134.511Z" fill="#FCFCFC"/>
<path d="M169.782 141.953C169.159 141.953 168.595 141.804 168.089 141.508C167.589 141.206 167.196 140.799 166.911 140.288C166.625 139.778 166.483 139.217 166.483 138.605C166.483 137.981 166.632 137.401 166.93 136.865C167.235 136.33 167.641 135.904 168.147 135.589C168.66 135.267 169.218 135.107 169.821 135.107C170.412 135.107 170.95 135.236 171.437 135.494C171.923 135.747 172.16 136.207 172.147 136.875H171.378C171.398 136.478 171.236 136.204 170.892 136.052C170.554 135.901 170.181 135.825 169.772 135.825C169.318 135.825 168.9 135.958 168.517 136.222C168.134 136.481 167.829 136.828 167.602 137.263C167.375 137.691 167.261 138.148 167.261 138.634C167.261 139.1 167.368 139.532 167.582 139.929C167.803 140.326 168.105 140.645 168.488 140.884C168.87 141.117 169.305 141.234 169.792 141.234C170.246 141.234 170.665 141.133 171.047 140.931C171.437 140.73 171.745 140.443 171.972 140.071L172.624 140.506C172.319 140.985 171.91 141.347 171.398 141.593C170.892 141.833 170.353 141.953 169.782 141.953Z" fill="#FCFCFC"/>
<path d="M175.241 135.305H176.039V141.801H175.241V135.305Z" fill="#FCFCFC"/>
<path d="M182.252 142C181.61 141.994 181.032 141.849 180.52 141.565C180.014 141.275 179.615 140.884 179.323 140.392C179.037 139.894 178.894 139.333 178.894 138.709V138.435C178.894 137.836 179.04 137.288 179.332 136.79C179.631 136.285 180.033 135.888 180.539 135.598C181.052 135.302 181.61 135.154 182.213 135.154C182.823 135.154 183.381 135.302 183.887 135.598C184.394 135.888 184.796 136.285 185.094 136.79C185.393 137.288 185.542 137.836 185.542 138.435V138.709C185.542 139.333 185.396 139.898 185.104 140.402C184.819 140.906 184.426 141.3 183.926 141.584C183.427 141.867 182.869 142.006 182.252 142ZM182.223 141.281C182.697 141.281 183.125 141.171 183.508 140.95C183.891 140.723 184.192 140.414 184.413 140.024C184.634 139.633 184.744 139.195 184.744 138.709V138.435C184.744 137.975 184.63 137.549 184.403 137.159C184.176 136.761 183.868 136.449 183.479 136.222C183.096 135.989 182.671 135.873 182.204 135.873C181.743 135.873 181.321 135.989 180.938 136.222C180.555 136.449 180.25 136.761 180.023 137.159C179.803 137.549 179.692 137.975 179.692 138.435V138.709C179.692 139.195 179.803 139.633 180.023 140.024C180.244 140.414 180.546 140.723 180.929 140.95C181.318 141.171 181.749 141.281 182.223 141.281Z" fill="#FCFCFC"/>
<path d="M194.779 135.126H195.1L197.971 141.801H197.124L196.209 139.712H193.669L192.774 141.801H191.927L194.779 135.126ZM195.071 136.988L194.993 136.743L194.934 136.525L194.866 136.733L194.788 136.988L193.971 139.012H195.898L195.071 136.988Z" fill="#FCFCFC"/>
<path d="M203.136 142C202.493 141.994 201.916 141.849 201.403 141.565C200.897 141.275 200.498 140.884 200.206 140.392C199.921 139.894 199.778 139.333 199.778 138.709V138.435C199.778 137.836 199.924 137.288 200.216 136.79C200.514 136.285 200.917 135.888 201.423 135.598C201.935 135.302 202.493 135.154 203.097 135.154C203.707 135.154 204.265 135.302 204.771 135.598C205.277 135.888 205.68 136.285 205.978 136.79C206.276 137.288 206.426 137.836 206.426 138.435V138.709C206.426 139.333 206.28 139.898 205.988 140.402C205.702 140.906 205.31 141.3 204.81 141.584C204.31 141.867 203.752 142.006 203.136 142ZM203.107 141.281C203.58 141.281 204.009 141.171 204.391 140.95C204.774 140.723 205.076 140.414 205.297 140.024C205.517 139.633 205.628 139.195 205.628 138.709V138.435C205.628 137.975 205.514 137.549 205.287 137.159C205.06 136.761 204.752 136.449 204.362 136.222C203.979 135.989 203.554 135.873 203.087 135.873C202.626 135.873 202.205 135.989 201.822 136.222C201.439 136.449 201.134 136.761 200.907 137.159C200.686 137.549 200.576 137.975 200.576 138.435V138.709C200.576 139.195 200.686 139.633 200.907 140.024C201.128 140.414 201.429 140.723 201.812 140.95C202.201 141.171 202.633 141.281 203.107 141.281Z" fill="#FCFCFC"/>
<path d="M215.662 135.126H215.983L218.855 141.801H218.008L217.093 139.712H214.553L213.657 141.801H212.81L215.662 135.126ZM215.954 136.988L215.876 136.743L215.818 136.525L215.75 136.733L215.672 136.988L214.854 139.012H216.782L215.954 136.988Z" fill="#FCFCFC"/>
<path d="M221.45 135.305H225.811V136.043H222.248V138.076H224.954V138.813H222.248V141.801H221.45V135.305Z" fill="#FCFCFC"/>
<path d="M230.036 136.024H227.827V135.305H233.044V136.024H230.834V141.801H230.036V136.024Z" fill="#FCFCFC"/>
<path d="M235.667 135.305H240.028V136.024H236.446V138H239.084V138.719H236.446V141.083H240.213V141.801H235.667V135.305Z" fill="#FCFCFC"/>
<path d="M247.906 141.697C247.789 141.823 247.601 141.886 247.342 141.886C247.004 141.886 246.732 141.754 246.524 141.489L245.395 139.986C245.272 139.828 245.161 139.702 245.064 139.608C244.973 139.513 244.847 139.434 244.684 139.371C244.529 139.302 244.334 139.264 244.1 139.258V138.53H245.035C245.418 138.53 245.719 138.422 245.94 138.208C246.161 137.987 246.271 137.688 246.271 137.31C246.271 136.932 246.164 136.623 245.95 136.383C245.742 136.144 245.473 136.024 245.142 136.024H243.74V141.801H242.942V135.305H245.181C245.531 135.305 245.849 135.393 246.135 135.57C246.427 135.747 246.654 135.983 246.816 136.279C246.985 136.569 247.069 136.881 247.069 137.215C247.069 137.619 246.959 137.981 246.738 138.303C246.518 138.624 246.248 138.829 245.93 138.917C245.775 138.961 245.515 138.983 245.152 138.983C245.34 139.034 245.476 139.088 245.56 139.144C245.651 139.195 245.749 139.283 245.852 139.409L246.213 139.882C246.719 140.544 247.004 140.916 247.069 140.998C247.127 141.067 247.176 141.117 247.215 141.149C247.26 141.174 247.306 141.187 247.351 141.187C247.429 141.187 247.497 141.158 247.556 141.102L247.906 141.697Z" fill="#FCFCFC"/>
<path d="M59.2999 36.3576L55.8806 32.6091C60.5992 28.0207 61.1714 22.5732 61.4355 20.059C63.5307 20.2789 66.045 20.5431 68.5592 20.8072C67.0838 30.8202 60.6451 35.6515 59.2999 36.3576Z" fill="#AE03FF"/>
<path d="M54.6197 23.1825L51.4037 23.09C51.3906 18.9165 49.1586 16.2552 48.1284 15.027L51.6085 12.1082C55.5244 17.193 54.8904 22.2579 54.6197 23.1825Z" fill="#099DFF"/>
<path d="M75.6323 8.89576L72.9625 9.91816C71.5264 6.49894 68.7865 5.07801 67.522 4.4222L69.3801 0.839295C74.329 3.6733 75.5387 8.04487 75.6323 8.89576Z" fill="#227CFF"/>
<path d="M64.5903 8.9994L59.8064 8.60846C59.7399 10.2738 59.9097 11.7702 60.2153 13.0896L64.6643 12.936C64.4038 11.2818 64.5188 9.87543 64.5903 8.9994Z" fill="#9C04FF"/>
<path d="M74.4165 17.1093L78.5111 16.7746C78.568 18.2 78.4228 19.4808 78.1611 20.6101L74.3532 20.4787C74.5761 19.0627 74.4778 17.8591 74.4165 17.1093Z" fill="#8C54FC"/>
<defs>
<linearGradient id="paint0_linear_2094_5260" x1="22.1657" y1="50.4206" x2="58.3309" y2="50.4206" gradientUnits="userSpaceOnUse">
<stop stop-color="#AE03FF"/>
</linearGradient>
<linearGradient id="paint1_linear_2094_5260" x1="0" y1="99.568" x2="248" y2="99.568" gradientUnits="userSpaceOnUse">
<stop stop-color="#AE03FF"/>
<stop offset="0.465" stop-color="#A147FB"/>
<stop offset="0.945" stop-color="#00A8FF"/>
</linearGradient>
</defs>
</svg>
